<svg width="24" height="24" viewBox="0 0 24 24" data-name="Layer 1" xmlns="http://www.w3.org/2000/svg"><defs><clipPath id="a"><path style="fill:none" d="M0-.06h24v24H0z"/></clipPath></defs><g style="clip-path:url(#a);fill:#fff"><path d="M19.08 20.63H4.92a3.76 3.76 0 0 1-3.75-3.75V7.13a3.75 3.75 0 0 1 3.75-3.75h14.16a3.75 3.75 0 0 1 3.75 3.75v9.75a3.76 3.76 0 0 1-3.75 3.75ZM4.92 4.88a2.25 2.25 0 0 0-2.25 2.25v9.75a2.25 2.25 0 0 0 2.25 2.25h14.16a2.25 2.25 0 0 0 2.25-2.25V7.13a2.25 2.25 0 0 0-2.25-2.25Z"/><path d="M5.6 8.52a1 1 0 1 1 1-1 1 1 0 0 1-1 1ZM5.6 7a.46.46 0 0 0-.46.46A.47.47 0 1 0 5.6 7Zm3.88 1.52a1 1 0 1 1 1-1 1 1 0 0 1-1 1Zm0-1.5a.45.45 0 0 0-.48.46.46.46 0 0 0 .46.46.47.47 0 0 0 .46-.46.46.46 0 0 0-.44-.48Zm3.87 1.5a1 1 0 1 1 1-1 1 1 0 0 1-1 1Zm0-1.5a.46.46 0 0 0-.46.46.47.47 0 1 0 .46-.48Zm1.4 9.42a.74.74 0 0 1-.53-.22.75.75 0 0 1 0-1.06l1.46-1.46-1.62-1.62A.75.75 0 0 1 15.12 11l2.15 2.15a.75.75 0 0 1 0 1.06l-2 2a.71.71 0 0 1-.52.23Zm-5.1 0a.74.74 0 0 1-.53-.22l-2-2a.75.75 0 0 1 0-1.06L9.28 11a.75.75 0 0 1 1.06 0 .74.74 0 0 1 0 1.06L8.72 13.7l1.46 1.46a.74.74 0 0 1 0 1.06.71.71 0 0 1-.53.22Z"/></g></svg>