<svg width="636" viewBox="-100 0 536 190" xmlns="http://www.w3.org/2000/svg" xmlns:xlink="http://www.w3.org/1999/xlink"><defs><path d="M213.248 144.368h-19.296c2.592-5.376 7.296-10.656 11.52-17.568 5.664-9.216 8.448-16.896 8.448-22.944 0-1.056-.096-2.304-.288-3.744l-13.152 9.984c.48.384.864.768 1.056 1.248.288.576.384 1.248.384 1.92 0 4.608-2.784 10.464-7.392 18.048-4.608 7.776-8.736 13.632-8.736 20.16v.672c.672-1.152 1.92-1.536 3.84-1.536h23.616v7.488c0 4.608-1.152 6.72-5.184 7.68v1.92h25.248v-1.92c-4.032-.96-5.184-3.072-5.184-7.68v-7.488h4.224c1.728 0 2.592.768 3.072 2.4l2.592-12.48c-2.016 2.592-3.936 3.84-6.432 3.84h-3.456v-29.184c0-4.224.576-9.792 1.728-16.8L227.84 98c-1.92 11.04-7.008 17.856-14.592 20.064v26.304Z" id="b"/><path d="M159.816 103.088c13.728 0 24 12.576 24 32.832s-10.272 32.928-24 32.928-24-12.576-24-32.928c0-20.352 10.272-32.832 24-32.832Zm0 5.952c-5.76 0-7.776 8.736-7.776 26.88s2.016 26.88 7.776 26.88 7.776-8.736 7.776-26.88-2.016-26.88-7.776-26.88Z" id="c"/><path d="M107.456 144.368H88.16c2.592-5.376 7.296-10.656 11.52-17.568 5.664-9.216 8.448-16.896 8.448-22.944 0-1.056-.096-2.304-.288-3.744l-13.152 9.984c.48.384.864.768 1.056 1.248.288.576.384 1.248.384 1.92 0 4.608-2.784 10.464-7.392 18.048-4.608 7.776-8.736 13.632-8.736 20.16v.672c.672-1.152 1.92-1.536 3.84-1.536h23.616v7.488c0 4.608-1.152 6.72-5.184 7.68v1.92h25.248v-1.92c-4.032-.96-5.184-3.072-5.184-7.68v-7.488h4.224c1.728 0 2.592.768 3.072 2.4l2.592-12.48c-2.016 2.592-3.936 3.84-6.432 3.84h-3.456v-29.184c0-4.224.576-9.792 1.728-16.8L122.048 98c-1.92 11.04-7.008 17.856-14.592 20.064v26.304Z" id="d"/><path d="M37.482 46.5v-6.88c0-6.034.483-8.81 7.483-8.81 10.74 0 18.586 6.518 21.724 18.104l1.569-.242L64.275 22c-1.448 1.569-3.5 2.052-6.517 2.052h-47.19v3.379c3.741.241 5.672 2.776 5.672 7.483v58.052c0 4.706-1.93 7.362-5.672 7.603v3.38h44.776c5.31 0 8.569.12 10.138 2.051l8.086-29.931-1.207-.362C65.602 90.069 56.671 97.31 45.81 97.31c-8.207 0-8.327-3.741-8.327-11.707V53.5h3.138c8.569 0 13.034 3.62 14.724 12.31h1.448l-2.776-28.12h-1.448c-.603 6.276-3.5 8.81-9.897 8.81h-5.19Z" id="e"/><path d="M77.384 24h36.864c9.984 0 14.976 3.072 14.976 9.792 0 6.24-3.84 10.848-11.712 14.88 7.104 9.504 10.464 20.448 14.4 31.584.576 1.536 1.152 2.592 1.536 3.168.768.96 1.728 1.344 3.072 1.44v2.688h-24.672v-2.688c1.824-.096 2.688-1.152 2.688-3.168 0-3.168-2.688-13.344-10.848-26.88-1.536.672-3.072 1.056-4.896 1.44v22.56c0 3.84 1.44 5.856 4.416 6.048v2.688H77.384v-2.688c2.976-.192 4.512-2.304 4.512-6.048V32.64c0-3.744-1.536-5.76-4.512-5.952V24Zm21.408 25.92c8.64-2.304 13.344-7.296 13.344-13.344 0-4.32-2.496-6.72-7.008-6.72-4.704 0-6.336 1.728-6.336 6.144v13.92Z" id="f"/><path d="M140.072 24h36.864c9.984 0 14.976 3.072 14.976 9.792 0 6.24-3.84 10.848-11.712 14.88 7.104 9.504 10.464 20.448 14.4 31.584.576 1.536 1.152 2.592 1.536 3.168.768.96 1.728 1.344 3.072 1.44v2.688h-24.672v-2.688c1.824-.096 2.688-1.152 2.688-3.168 0-3.168-2.688-13.344-10.848-26.88-1.536.672-3.072 1.056-4.896 1.44v22.56c0 3.84 1.44 5.856 4.416 6.048v2.688h-25.824v-2.688c2.976-.192 4.512-2.304 4.512-6.048V32.64c0-3.744-1.536-5.76-4.512-5.952V24Zm21.408 25.92c8.64-2.304 13.344-7.296 13.344-13.344 0-4.32-2.496-6.72-7.008-6.72-4.704 0-6.336 1.728-6.336 6.144v13.92Z" id="g"/><path d="M192.744 56.636c0-20.448 12.672-33.696 30.336-33.696 17.376 0 28.896 12.192 28.896 32.832 0 9.408-3.168 17.76-8.64 23.712-5.376 5.856-13.056 9.216-20.928 9.216-18.144 0-29.664-12.288-29.664-32.064Zm28.8-27.744c-7.584 0-11.136 6.816-11.136 20.544 0 22.08 4.032 33.024 12.576 33.024 7.584 0 11.136-6.816 11.136-20.736 0-21.984-4.032-32.832-12.576-32.832Z" id="h"/><path d="M252 24h46.13c12.493 0 18.74 3.819 18.74 12.172 0 7.757-4.805 13.485-14.656 18.497 8.89 11.814 13.094 25.419 18.02 39.262.72 1.909 1.441 3.222 1.922 3.938.96 1.193 2.162 1.67 3.844 1.79V103h-30.873v-3.341c2.282-.12 3.363-1.432 3.363-3.938 0-3.939-3.363-16.588-13.574-33.414-1.922.835-3.845 1.312-6.127 1.79V92.14c0 4.774 1.802 7.28 5.526 7.519V103H252v-3.341c3.724-.24 5.646-2.864 5.646-7.519v-57.4c0-4.654-1.922-7.16-5.646-7.399V24Zm26.789 32.22c10.812-2.864 16.698-9.069 16.698-16.587 0-5.37-3.123-8.354-8.77-8.354-5.886 0-7.928 2.148-7.928 7.638V56.22Z" id="i"/><path id="j" d="M252 113h74v4h-74z"/><path id="k" d="M10 113h63v4H10z"/><path id="l" d="M10 10h307v4H10z"/><filter x="-50%" y="-50%" width="200%" height="200%" filterUnits="objectBoundingBox" id="a"><feMorphology radius="1" operator="dilate" in="SourceAlpha" result="shadowSpreadOuter1"/><feOffset in="shadowSpreadOuter1" result="shadowOffsetOuter1"/><feMorphology radius="1" in="SourceAlpha" result="shadowInner"/><feOffset in="shadowInner" result="shadowInner"/><feComposite in="shadowOffsetOuter1" in2="shadowInner" operator="out" result="shadowOffsetOuter1"/><feGaussianBlur stdDeviation="4" in="shadowOffsetOuter1" result="shadowBlurOuter1"/><feColorMatrix values="0.16 0 0 0 0 0 0.71 0 0 0 0 0 0.52 0 0 0 0 0 1 0" in="shadowBlurOuter1" result="shadowMatrixOuter1"/><feMorphology radius="1" operator="dilate" in="SourceAlpha" result="shadowSpreadOuter2"/><feOffset in="shadowSpreadOuter2" result="shadowOffsetOuter2"/><feMorphology radius="1" in="SourceAlpha" result="shadowInner"/><feOffset in="shadowInner" result="shadowInner"/><feComposite in="shadowOffsetOuter2" in2="shadowInner" operator="out" result="shadowOffsetOuter2"/><feGaussianBlur stdDeviation="2.5" in="shadowOffsetOuter2" result="shadowBlurOuter2"/><feColorMatrix values="0.16 0 0 0 0 0 0.71 0 0 0 0 0 0.52 0 0 0 0 0 1 0" in="shadowBlurOuter2" result="shadowMatrixOuter2"/><feMerge><feMergeNode in="shadowMatrixOuter1"/><feMergeNode in="shadowMatrixOuter2"/></feMerge></filter></defs><g fill-rule="evenodd"><g class="glow"><use class="error-3-4" filter="url(#a)" xlink:href="#b"/><use class="error-2-0" filter="url(#a)" xlink:href="#c"/><use class="error-1-4" filter="url(#a)" xlink:href="#d"/><use class="error-1-e" filter="url(#a)" xlink:href="#e"/><use class="error-2-r" filter="url(#a)" xlink:href="#f"/><use class="error-3-r" filter="url(#a)" xlink:href="#g"/><use class="error-4-o" filter="url(#a)" xlink:href="#h"/><use class="error-5-r" filter="url(#a)" xlink:href="#i"/><use class="error-right" filter="url(#a)" xlink:href="#j"/><use class="error-left" filter="url(#a)" xlink:href="#k"/><use class="error-top" filter="url(#a)" xlink:href="#l"/></g><g class="top" fill="none" stroke="#72f387" stroke-width="2" stroke-linecap="round" stroke-linejoin="round"><use class="error-3-4" xlink:href="#b"/><use class="error-2-0" xlink:href="#c"/><use class="error-1-4" xlink:href="#d"/><use class="error-1-e" xlink:href="#e"/><use class="error-2-r" xlink:href="#f"/><use class="error-3-r" xlink:href="#g"/><use class="error-4-o" xlink:href="#h"/><use class="error-5-r" xlink:href="#i"/><use class="error-right" xlink:href="#j"/><use class="error-left" xlink:href="#k"/><use class="error-top" xlink:href="#l"/></g></g></svg>